<?xml version="1.0" encoding="utf-8"?>
<!-- Generator: Adobe Illustrator 25.3.1, SVG Export Plug-In . SVG Version: 6.00 Build 0)  -->
<svg version="1.1" id="Capa_1" xmlns="http://www.w3.org/2000/svg" xmlns:xlink="http://www.w3.org/1999/xlink" x="0px" y="0px"
	 viewBox="0 0 568 568" style="enable-background:new 0 0 568 568;" xml:space="preserve">
<style type="text/css">
	.st0{fill:#FFFFFF;}
</style>
<g>
	<g>
		<path class="st0" d="M551,0H17.1C8.9,0,2.4,6.6,2.4,14.7v538.7c0,8.1,6.6,14.7,14.7,14.7h177.5v-0.1c8-0.1,14.1-4.6,14.4-12.2
			c0.7-19.7,0.2-39.5,0.2-58.6c-14.3,0.7-27.9,2.5-41.4,1.7c-29.8-1.7-52.6-14.4-64.5-43.6c-7-17.3-17.6-32-34.1-41.9
			c-3.1-1.8-5.8-4.6-8.1-7.3c-3.1-3.6-2.5-7.3,2.4-8.3c4.9-1,10.3-1.7,15.1-0.8c19,3.6,32.2,15.5,42.2,31.3
			c19.9,31.4,50.5,41,85,26.5c1.9-0.8,4.4-2.8,4.7-4.6c2.8-13.9,8-26.5,18.4-37.6c-11.6-2.2-22.4-3.7-33-6.2
			c-30.4-7-57.7-19.7-77.7-44.8c-16.3-20.5-23.8-44.5-27.2-70.1c-5.4-40-0.6-77.5,26.9-109.5c1.4-1.6,2.1-4.9,1.5-6.9
			c-6.9-22.5-5.8-44.8,1-67.1c3.6-11.7,4.6-12.3,16.5-10.6c0.7,0.1,1.4,0.3,2.2,0.4c23.9,4,44.5,15.5,64.7,28c2.7,1.7,6.9,2.7,9.9,2
			c48.4-11.7,96.7-11.7,145.1,0c2.8,0.7,6.6-0.3,9.2-1.7c11-5.8,21.6-12.5,32.7-17.9c13-6.3,26.7-11.1,41.4-10.9
			c2.6,0,6.6,2.5,7.4,4.8c8.9,23.5,10.7,47.4,3.7,71.8c-0.8,2.6,0.4,6.3,1.8,8.9c7,12.8,16.7,24.6,21.1,38.1
			c13.4,41.3,8.5,82.2-9.7,121.1c-16.8,35.6-47.8,53.6-84.6,62.9c-12.4,3.1-25.2,5-38.6,7.7c17.6,18.3,20.3,40.7,20,64.2
			c-0.3,24.2-0.2,48.4-0.3,72.6c0,11.7,5.1,18.2,14,18.6c0,0,188.7,0,188.7,0V14.7C565.7,6.6,559.1,0,551,0z"/>
	</g>
</g>
</svg>
